<svg xmlns="http://www.w3.org/2000/svg" xmlns:xlink="http://www.w3.org/1999/xlink" width="414.258" height="1761.521" viewBox="0 0 414.258 1761.521"><defs><clipPath id="clip-path"><rect id="Rectangle_1363" data-name="Rectangle 1363" width="414.258" height="1761.521" fill="#7c2638"></rect></clipPath><clipPath id="clip-path-2"><rect id="Rectangle_43" data-name="Rectangle 43" width="180.218" height="196.079" fill="none"></rect></clipPath></defs><g id="Groupe_5307" data-name="Groupe 5307" transform="translate(6658.879 2162.137)"><g id="Groupe_5306" data-name="Groupe 5306" transform="translate(-6658.879 -2162.137)"><g id="Groupe_5305" data-name="Groupe 5305" clip-path="url(#clip-path)"><path id="Trac&#xE9;_64029" data-name="Trac&#xE9; 64029" d="M413.673,1649.5V1450.21q-.436-318.657-.868-637.384V658.69c0-37.937.825-75.786-7.816-104.636-10.738-35.865-32.76-66.734-59.484-86.839-26.99-20.3-53.3-25.319-62.955-64.258-3.471-14-1.739-31.435-1.739-47.758q-.213-10.641-.432-21.278.218-15.193.432-30.394-.866-94.857-1.735-189.736c0-10.419-.694-21.735,1.735-30.394q2.173-5.429,4.342-10.855V45.623c-.011-10.43,2.026-26.378-2.171-33.432-3.782-6.364-15.5-6.662-24.313-8.248C242.742,1.073,225.3.127,207.128,0c-18.168.127-35.614,1.073-51.54,3.942-8.815,1.587-20.531,1.884-24.313,8.248-4.2,7.055-2.16,23-2.171,33.432V72.542q2.167,5.424,4.342,10.855c2.43,8.659,1.735,19.974,1.735,30.394q-.866,94.857-1.735,189.736.212,15.2.432,30.394-.218,10.635-.432,21.278c0,16.323,1.732,33.755-1.739,47.758-9.651,38.94-35.961,43.954-62.955,64.258C42.027,487.32,20.009,518.189,9.268,554.054.63,582.9,1.451,620.753,1.451,658.69V812.826Q1.016,1131.488.584,1450.21V1649.5c0,27.192-3.761,64.272,7.816,80.759,10.89,15.509,30.482,17,52.971,21.274,24.267,4.618,50.864,3.995,77.284,8.252q21.706.866,43.416,1.735h50.113q21.706-.866,43.416-1.735c26.42-4.257,53.021-3.634,77.288-8.252,22.489-4.278,42.077-5.766,52.968-21.274,11.577-16.486,7.816-53.566,7.816-80.759" transform="translate(0.001)" fill="#7c2638" fill-rule="evenodd"></path></g></g><g id="Groupe_5304" data-name="Groupe 5304" transform="translate(-7406.859 -2072.678)"><g id="Groupe_135" data-name="Groupe 135" transform="translate(865 578.139)"><g id="Logo-arche" transform="translate(0 0)"><g id="Groupe_130" data-name="Groupe 130" transform="translate(0 0)" clip-path="url(#clip-path-2)"><path id="Trac&#xE9;_593" data-name="Trac&#xE9; 593" d="M13.149,165.5H6.014a1.121,1.121,0,0,1-1.223-1.223V140.123A1.223,1.223,0,0,0,3.466,138.9H1.223A1.223,1.223,0,0,0,0,140.123v28.643a1.223,1.223,0,0,0,1.223,1.223H13.149a1.223,1.223,0,0,0,1.223-1.223V166.83a1.081,1.081,0,0,0-1.223-1.223" transform="translate(0 2.685)" fill="#f7e6dc"></path><path id="Trac&#xE9;_594" data-name="Trac&#xE9; 594" d="M28.511,138.9H24.332a1.325,1.325,0,0,0-1.427,1.223l-5.5,28.643a1.019,1.019,0,0,0,.917,1.223H20.56a1.529,1.529,0,0,0,1.529-1.223l.815-4.281a1.631,1.631,0,0,1,1.427-1.325h4.179a1.529,1.529,0,0,1,1.529,1.325l.917,4.179a1.427,1.427,0,0,0,1.529,1.223h2.344a1.019,1.019,0,0,0,1.121-1.223l-5.708-28.541a1.427,1.427,0,0,0-1.529-1.223M27.9,158.777H25.147c-.714,0-1.223-.408-1.121-1.121l2.039-11.417c0-.408.408-.306.51,0l2.141,11.417c.1.815-.306,1.223-1.019,1.223" transform="translate(0.336 2.685)" fill="#f7e6dc"></path><path id="Trac&#xE9;_595" data-name="Trac&#xE9; 595" d="M58.743,138.9H52.321a1.325,1.325,0,0,0-1.121,1.223v28.541a1.121,1.121,0,0,0,1.121,1.223h6.422c6.116,0,8.97-3.058,8.97-9.786V148.584c0-6.626-2.956-9.684-8.97-9.684m4.179,20.081c0,4.791-1.223,6.626-4.587,6.626H57.01a1.019,1.019,0,0,1-1.019-1.019V144.506a1.121,1.121,0,0,1,1.223-1.223h1.223c3.364,0,4.587,1.733,4.587,6.626Z" transform="translate(0.99 2.685)" fill="#f7e6dc"></path><path id="Trac&#xE9;_596" data-name="Trac&#xE9; 596" d="M87.142,165.5h-6.83a1.121,1.121,0,0,1-1.223-1.223v-7.033a1.223,1.223,0,0,1,1.223-1.325h5.912a1.223,1.223,0,0,0,1.223-1.223v-1.937a1.121,1.121,0,0,0-1.223-1.223h-5.81a1.223,1.223,0,0,1-1.325-1.325v-5.5c0-.815.408-1.427,1.223-1.427h6.931a1.121,1.121,0,0,0,1.223-1.223v-1.937a1.081,1.081,0,0,0-1.223-1.223H75.623a1.529,1.529,0,0,0-1.223,1.223v28.643a1.223,1.223,0,0,0,1.223,1.223H87.142a1.223,1.223,0,0,0,1.223-1.223V166.83a1.325,1.325,0,0,0-1.223-1.325" transform="translate(1.438 2.685)" fill="#f7e6dc"></path><path id="Trac&#xE9;_597" data-name="Trac&#xE9; 597" d="M81.954,131.7a2.548,2.548,0,0,0-1.733,1.019L79.2,134.758c-.306.51.306,1.019.815,1.019h1.019a3.262,3.262,0,0,0,1.733-1.019l1.733-2.039c.306-.408-.2-1.019-.714-1.019Z" transform="translate(1.529 2.546)" fill="#f7e6dc"></path><path id="Trac&#xE9;_598" data-name="Trac&#xE9; 598" d="M110.723,168.776V155.729a1.325,1.325,0,0,0-1.325-1.223H103.18a1.121,1.121,0,0,0-1.223,1.325v1.427a1.223,1.223,0,0,0,1.223,1.223h1.427c.917,0,1.223.612,1.223,1.529,0,4.179-1.019,6.014-3.568,6.014s-3.772-1.937-3.772-7.543V149c0-4.485.917-6.116,3.568-6.116s3.568,1.733,3.67,4.893A1.223,1.223,0,0,0,106.951,149H109.3a1.121,1.121,0,0,0,1.223-1.223c0-5.4-2.752-9.378-8.46-9.378a8.053,8.053,0,0,0-6.626,2.956c-1.427,1.835-1.733,3.568-1.733,8.664v8.562c0,4.383.306,6.32,1.325,8.359a7.033,7.033,0,0,0,6.422,3.67,6.218,6.218,0,0,0,3.67-1.019l.612-.306c.306,0,.2.815,1.325.815H109.4a1.325,1.325,0,0,0,1.325-1.223" transform="translate(1.811 2.675)" fill="#f7e6dc"></path><path id="Trac&#xE9;_599" data-name="Trac&#xE9; 599" d="M132.074,167.749c1.325-1.733,1.835-3.772,1.835-7.747V140.125a1.325,1.325,0,0,0-1.223-1.325h-2.243a1.223,1.223,0,0,0-1.223,1.223v20.59c0,3.772-.917,5.2-3.364,5.2s-3.466-1.529-3.466-5.2V140.125a1.121,1.121,0,0,0-1.223-1.223h-2.344a1.223,1.223,0,0,0-1.223,1.223V160c0,3.873.408,5.81,1.835,7.747s3.67,2.752,6.422,2.752a7.543,7.543,0,0,0,6.422-2.752" transform="translate(2.273 2.683)" fill="#f7e6dc"></path><path id="Trac&#xE9;_600" data-name="Trac&#xE9; 600" d="M150.215,152.669l-2.141-1.733c-2.344-1.835-3.262-3.262-3.262-4.893a3.058,3.058,0,0,1,3.058-3.16q2.65,0,3.771,3.364c.2.612.51.917,1.019.917h.51l2.141-.612a1.223,1.223,0,0,0,.917-1.121,8.664,8.664,0,0,0-8.46-6.931c-4.791,0-8.155,3.058-8.155,7.645s1.835,5.81,4.383,7.849l3.16,2.446c3.568,2.854,4.587,4.179,4.587,6.116a3.364,3.364,0,0,1-3.568,3.568c-2.243,0-3.873-1.529-4.587-4.281-.2-.714-.51-1.019-.917-1.019l-.917.2-1.733.51a1.325,1.325,0,0,0-1.121,1.223c0,1.121,1.427,7.849,9.276,7.849,5.1,0,8.562-3.16,8.562-7.849s-3.262-7.135-6.728-9.888" transform="translate(2.685 2.677)" fill="#f7e6dc"></path><path id="Trac&#xE9;_601" data-name="Trac&#xE9; 601" d="M175.9,138.9H161.423a1.325,1.325,0,0,0-1.223,1.223v2.344a1.325,1.325,0,0,0,1.223,1.223h3.568a1.427,1.427,0,0,1,1.223,1.223v23.852a1.223,1.223,0,0,0,1.223,1.223h2.344A1.325,1.325,0,0,0,171,168.768V144.916a1.223,1.223,0,0,1,1.223-1.223H175.8a1.223,1.223,0,0,0,1.223-1.223v-2.446A1.223,1.223,0,0,0,175.8,138.8" transform="translate(3.097 2.683)" fill="#f7e6dc"></path><path id="Trac&#xE9;_602" data-name="Trac&#xE9; 602" d="M45.1,179.617l2.141,1.427.612-.815L45.814,178.7Z" transform="translate(0.872 3.454)" fill="#f7e6dc"></path><path id="Trac&#xE9;_603" data-name="Trac&#xE9; 603" d="M45.443,181.5,43.2,192.3h1.631l.51-2.446h2.243l.51,2.446h1.631l-2.243-10.8Zm.1,6.83.306-1.835c.2-1.121.408-2.344.51-3.364.2,1.121.306,2.344.51,3.364l.306,1.835Z" transform="translate(0.835 3.509)" fill="#f7e6dc"></path><path id="Trac&#xE9;_604" data-name="Trac&#xE9; 604" d="M59.1,183.131h1.937v9.276h1.631v-9.276H64.6V181.5H59.1Z" transform="translate(1.142 3.509)" fill="#f7e6dc"></path><path id="Trac&#xE9;_605" data-name="Trac&#xE9; 605" d="M71.76,181.4c-2.039,0-3.16,1.223-3.16,5.606s1.019,5.708,3.058,5.708,3.16-1.223,3.16-5.708S73.8,181.4,71.76,181.4m0,9.684c-1.019,0-1.427-.917-1.427-4.077s.408-4.077,1.427-4.077,1.427.917,1.427,4.077-.408,4.077-1.427,4.077" transform="translate(1.326 3.507)" fill="#f7e6dc"></path><path id="Trac&#xE9;_606" data-name="Trac&#xE9; 606" d="M83.475,188.941c0,1.631-.306,2.141-1.223,2.141s-1.223-.408-1.223-2.141V181.5H79.5v7.441c0,2.752,1.019,3.568,2.752,3.568s2.854-.815,2.854-3.568V181.5H83.475Z" transform="translate(1.537 3.509)" fill="#f7e6dc"></path><path id="Trac&#xE9;_607" data-name="Trac&#xE9; 607" d="M91.531,181.5H89.9v10.907h4.485v-1.529H91.531Z" transform="translate(1.738 3.509)" fill="#f7e6dc"></path><path id="Trac&#xE9;_608" data-name="Trac&#xE9; 608" d="M101.66,181.4c-2.039,0-3.16,1.223-3.16,5.606s1.019,5.708,3.058,5.708,3.16-1.223,3.16-5.708S103.7,181.4,101.66,181.4m0,9.684c-1.019,0-1.427-.917-1.427-4.077s.408-4.077,1.427-4.077,1.427.917,1.427,4.077-.408,4.077-1.427,4.077" transform="translate(1.904 3.507)" fill="#f7e6dc"></path><path id="Trac&#xE9;_609" data-name="Trac&#xE9; 609" d="M113.377,188.941c0,1.631-.306,2.141-1.223,2.141s-1.223-.408-1.223-2.141V181.5H109.3v7.441c0,2.752,1.019,3.568,2.752,3.568s2.854-.815,2.854-3.568V181.5h-1.631Z" transform="translate(2.113 3.509)" fill="#f7e6dc"></path><path id="Trac&#xE9;_610" data-name="Trac&#xE9; 610" d="M122.764,186.395c-.917-.815-1.325-1.325-1.325-2.141a1.207,1.207,0,0,1,1.223-1.325,1.835,1.835,0,0,1,1.223.408l.51-1.325a3.16,3.16,0,0,0-1.937-.612,2.548,2.548,0,0,0-2.752,2.854,4.077,4.077,0,0,0,1.733,3.16,3.276,3.276,0,0,1,1.325,2.243c0,.917-.51,1.427-1.223,1.427a2.956,2.956,0,0,1-1.529-.51L119.4,191.9a3.771,3.771,0,0,0,2.344.815c1.835,0,2.752-1.121,2.752-3.058a4.077,4.077,0,0,0-1.733-3.16" transform="translate(2.308 3.506)" fill="#f7e6dc"></path><path id="Trac&#xE9;_611" data-name="Trac&#xE9; 611" d="M130.529,187.616h2.752v-1.529h-2.752v-2.956h3.058V181.5H129v10.907h4.689v-1.529h-3.16Z" transform="translate(2.494 3.509)" fill="#f7e6dc"></path><path id="Trac&#xE9;_612" data-name="Trac&#xE9; 612" d="M18.7,79.958v-.815c-.1-1.631-1.019-2.344-2.752-2.243A2.246,2.246,0,0,0,13.5,79.347v2.446l7.543-.408V79.754Zm-3.67.2v-.714c0-.612.306-.815,1.121-.917s1.223.2,1.223.815v.612Z" transform="translate(0.261 1.486)" fill="#f7e6dc"></path><path id="Trac&#xE9;_613" data-name="Trac&#xE9; 613" d="M20.941,72.681l-1.427-.408V70.439l1.427-.306V68.4L13.5,70.031v1.937l7.441,2.548Zm-2.752-.815-.917-.306-2.141-.51,2.243-.306h.917Z" transform="translate(0.261 1.322)" fill="#f7e6dc"></path><path id="Trac&#xE9;_614" data-name="Trac&#xE9; 614" d="M16.237,64.589a2.446,2.446,0,0,0,2.446-1.223c.51-.612.917-1.019,1.325-.917a.63.63,0,0,1,.51.815,3.16,3.16,0,0,1-.815,1.427l1.121.917a3.772,3.772,0,0,0,1.325-2.243,2.141,2.141,0,0,0-2.039-2.65,2.446,2.446,0,0,0-2.548,1.223c-.51.612-.815.917-1.223.815a.63.63,0,0,1-.51-.815,2.141,2.141,0,0,1,.714-1.223L15.523,59.9A3.058,3.058,0,0,0,14.4,61.837a2.141,2.141,0,0,0,1.835,2.752" transform="translate(0.277 1.158)" fill="#f7e6dc"></path><path id="Trac&#xE9;_615" data-name="Trac&#xE9; 615" d="M17.831,56.491a2.446,2.446,0,0,0,2.548-.917c.612-.612,1.019-.917,1.427-.815s.51.408.408.917A3.16,3.16,0,0,1,21.194,57l1.019,1.019a3.772,3.772,0,0,0,1.529-2.039,2.141,2.141,0,0,0-1.529-2.956,2.446,2.446,0,0,0-2.65.917c-.612.51-.917.815-1.325.714s-.51-.408-.408-.917a2.141,2.141,0,0,1,.815-1.121l-.917-.917A3.058,3.058,0,0,0,16.4,53.535a2.141,2.141,0,0,0,1.427,2.956" transform="translate(0.313 0.999)" fill="#f7e6dc"></path><rect id="Rectangle_37" data-name="Rectangle 37" width="1.638" height="7.558" transform="translate(19.082 48.74) rotate(-67.775)" fill="#f7e6dc"></rect><path id="Trac&#xE9;_616" data-name="Trac&#xE9; 616" d="M24.145,44.115c2.446,1.325,3.975.917,4.893-.815s.408-3.16-2.039-4.485-3.873-.917-4.791.815-.408,3.16,2.039,4.485m-.612-3.772c.408-.714,1.223-.714,2.65,0s1.937,1.427,1.529,2.243-1.223.714-2.65,0-1.835-1.427-1.427-2.141" transform="translate(0.421 0.735)" fill="#f7e6dc"></path><path id="Trac&#xE9;_617" data-name="Trac&#xE9; 617" d="M32.935,36.639,29.47,34.193h0l1.223.2,3.568.408.815-1.121L28.96,29.3l-.917,1.325,3.568,2.548h0l-1.223-.2-3.772-.51L25.8,33.581l6.116,4.383Z" transform="translate(0.499 0.566)" fill="#f7e6dc"></path><rect id="Rectangle_38" data-name="Rectangle 38" width="2.243" height="1.305" transform="translate(37.753 25.327) rotate(-44.8)" fill="#f7e6dc"></rect><path id="Trac&#xE9;_618" data-name="Trac&#xE9; 618" d="M49.606,20.03a3.772,3.772,0,0,0,1.427-2.243l-1.223-.612A2.752,2.752,0,0,1,48.791,18.6c-.714.51-1.427.2-2.344-1.121s-1.019-2.141-.51-2.548.917-.1,1.427.612l1.325-.917c-1.223-1.631-2.446-1.835-3.67-.917s-1.427,2.854-.1,4.791,3.16,2.65,4.689,1.529" transform="translate(0.851 0.255)" fill="#f7e6dc"></path><path id="Trac&#xE9;_619" data-name="Trac&#xE9; 619" d="M56.8,15.64c1.733-.917,2.141-2.446.815-4.893S54.862,7.791,53.13,8.708s-2.039,2.446-.815,4.791,2.752,2.956,4.485,2.039m-2.956-5.5c.714-.408,1.427.1,2.141,1.427s.714,2.243,0,2.65-1.427-.1-2.243-1.529-.714-2.243,0-2.65" transform="translate(0.997 0.16)" fill="#f7e6dc"></path><path id="Trac&#xE9;_620" data-name="Trac&#xE9; 620" d="M63.879,12.259,62.35,8.181h0l.815.917,2.752,2.344,1.325-.51L64.695,3.9l-1.529.51,1.529,4.179h0l-.815-.815L61.025,5.225l-1.325.51,2.65,7.033Z" transform="translate(1.154 0.075)" fill="#f7e6dc"></path><path id="Trac&#xE9;_621" data-name="Trac&#xE9; 621" d="M73.9,9.147V1.4l-1.631.408.2,5.708-2.243-5.2L68.5,2.725l3.466,6.931Z" transform="translate(1.324 0.027)" fill="#f7e6dc"></path><rect id="Rectangle_39" data-name="Rectangle 39" width="1.631" height="7.523" transform="translate(79.224 0.904) rotate(-7.5)" fill="#f7e6dc"></rect><path id="Trac&#xE9;_622" data-name="Trac&#xE9; 622" d="M87.177,7.645,88.706,0,86.973.1l-.815,5.5L84.833.2,83.1.306l2.141,7.339Z" transform="translate(1.606)" fill="#f7e6dc"></path><rect id="Rectangle_40" data-name="Rectangle 40" width="7.543" height="1.662" transform="matrix(0.066, -0.998, 0.998, 0.066, 93.905, 7.749)" fill="#f7e6dc"></rect><path id="Trac&#xE9;_623" data-name="Trac&#xE9; 623" d="M99.243,7.014l1.835.306V8.747l1.733.306-.815-7.747L100.364,1,97,8.033l1.733.306Zm.917-2.141.815-2.039a16.515,16.515,0,0,0,.1,2.243v.917l-1.325-.2Z" transform="translate(1.875 0.019)" fill="#f7e6dc"></path><path id="Trac&#xE9;_624" data-name="Trac&#xE9; 624" d="M110.283,9.631l-2.344-.714,1.733-5.81L108.041,2.7,105.9,9.835l3.975,1.223Z" transform="translate(2.047 0.052)" fill="#f7e6dc"></path><rect id="Rectangle_41" data-name="Rectangle 41" width="7.543" height="1.662" transform="translate(115.048 12.191) rotate(-68.1)" fill="#f7e6dc"></rect><path id="Trac&#xE9;_625" data-name="Trac&#xE9; 625" d="M120.429,15.657l2.752-5.3,1.529.714.714-1.325L120.939,7.4l-.714,1.325,1.529.815-2.854,5.3Z" transform="translate(2.298 0.143)" fill="#f7e6dc"></path><path id="Trac&#xE9;_626" data-name="Trac&#xE9; 626" d="M132.239,12.521V11.4l-2.039.1v.917Z" transform="translate(2.517 0.22)" fill="#f7e6dc"></path><path id="Trac&#xE9;_627" data-name="Trac&#xE9; 627" d="M128.168,20.464l.917-1.223-2.243-1.427.917-1.325,1.937,1.223.815-1.121-1.937-1.325.815-1.223,2.141,1.427.815-1.223L128.881,11.8,124.6,18.12Z" transform="translate(2.409 0.228)" fill="#f7e6dc"></path><rect id="Rectangle_42" data-name="Rectangle 42" width="1.325" height="2.202" transform="translate(138.599 23.429) rotate(-46.7)" fill="#f7e6dc"></rect><path id="Trac&#xE9;_628" data-name="Trac&#xE9; 628" d="M143.554,32.183l.51.612c.917,1.223,2.141,1.325,3.568.306s1.529-2.243.612-3.364L146.714,27.8,140.7,32.387l1.019,1.325Zm2.956-2.243.408.51c.306.408.2.917-.408,1.325s-1.121.51-1.427,0l-.408-.51Z" transform="translate(2.72 0.537)" fill="#f7e6dc"></path><path id="Trac&#xE9;_629" data-name="Trac&#xE9; 629" d="M145.817,39.366l1.427-.408.917,1.631-1.019,1.019.917,1.529,5.4-5.606L152.443,35.9,144.9,37.939Zm3.568-1.121,2.141-.714-1.631,1.529-.612.612-.714-1.121Z" transform="translate(2.801 0.694)" fill="#f7e6dc"></path><path id="Trac&#xE9;_630" data-name="Trac&#xE9; 630" d="M150.115,47.389l2.243-1.019.2.408v.306l-1.835,1.835.714,1.631,2.141-2.344a2.446,2.446,0,0,0,2.344,0,2.141,2.141,0,0,0,1.325-3.16L156.231,42.7,149.3,45.758Zm5.5-2.446.306.612c.2.51,0,.917-.714,1.223s-1.223.2-1.427-.306l-.306-.612Z" transform="translate(2.886 0.825)" fill="#f7e6dc"></path><path id="Trac&#xE9;_631" data-name="Trac&#xE9; 631" d="M152.9,54.672l.51,1.631,5.708-1.733.51,1.631,1.427-.51L159.526,50.9l-1.427.408.51,1.631Z" transform="translate(2.956 0.984)" fill="#f7e6dc"></path><path id="Trac&#xE9;_632" data-name="Trac&#xE9; 632" d="M154.706,61.533h1.427l.306,1.835-1.325.612.306,1.733,7.033-3.364-.306-1.835L154.4,59.8Zm3.772.2h2.243l-2.039.815-.815.306-.2-1.325Z" transform="translate(2.985 1.156)" fill="#f7e6dc"></path><path id="Trac&#xE9;_633" data-name="Trac&#xE9; 633" d="M159.47,68.2c-2.446.1-3.873,1.121-3.67,3.16a3.568,3.568,0,0,0,1.019,2.446l3.16-.2V71.158h-1.223v.917h-1.121a1.325,1.325,0,0,1-.306-.917c-.1-.917.917-1.325,2.344-1.427s2.344.306,2.446,1.019-.306.815-1.019.917V73.3c1.631-.1,2.548-.917,2.446-2.548s-1.631-2.854-4.077-2.65" transform="translate(3.011 1.316)" fill="#f7e6dc"></path><path id="Trac&#xE9;_634" data-name="Trac&#xE9; 634" d="M160.285,81.481l.1-2.344,1.529.1-.1,2.548,1.529.1.2-4.281L156,77.2l-.2,4.281,1.427.1.2-2.65,1.631.1-.2,2.344Z" transform="translate(3.012 1.492)" fill="#f7e6dc"></path><path id="Trac&#xE9;_635" data-name="Trac&#xE9; 635" d="M70.806,116.762a1.733,1.733,0,0,0,1.121-3.16c-1.631-1.325-5.5-2.854-9.48-4.383l7.033-20.794,3.058.306A24.056,24.056,0,0,0,81.2,86.9l1.733-.714a1.835,1.835,0,0,0-1.529-3.262l-1.631.714c-3.364,1.325-8.155,2.446-12.334.51S61.734,79.454,60,74.663C55.108,60.7,61.734,51.524,63.977,48.874l11.111,4.179a10.6,10.6,0,0,0-5.1,5.606c-1.019,3.262-.2,6.728,2.446,9.786A172.37,172.37,0,0,0,87.421,82.818h0c1.529,1.325,6.626,5.1,15.188,5.81a3.466,3.466,0,0,1,2.956,2.039l8.562,19.265c-4.281,2.243-7.747,4.383-8.053,4.587a1.835,1.835,0,0,0,.917,3.262l.917-.306c.1-.1,13.251-8.155,19.979-9.582a1.835,1.835,0,0,0-.714-3.466,46.89,46.89,0,0,0-9.888,3.873L108.725,89.24a7.033,7.033,0,0,0-5.912-4.077,24.26,24.26,0,0,1-12.028-4.077c.815-1.223,2.243-2.854,3.67-4.587C99.959,69.974,107.6,61,101.59,54.786a11.824,11.824,0,0,0-2.039-1.733l9.888-4.077c13.251,18.042.917,31.4.408,31.905a1.835,1.835,0,0,0,2.548,2.446c.2-.2,15.6-16.615-.917-37.715a1.733,1.733,0,0,0-2.039-.51L92.518,52.136h0A13.557,13.557,0,0,0,87.523,55.6a8.868,8.868,0,0,0-4.893-3.67L64.282,45.1a1.733,1.733,0,0,0-1.835.408c-.51.51-12.232,11.722-5.708,30.274,2.039,5.708,5.1,9.684,9.276,11.518L59.084,108l-7.849-2.548a1.835,1.835,0,0,0-1.019,3.364c4.485,1.325,16.717,5.4,19.571,7.543a1.835,1.835,0,0,0,1.121.408M80.49,55.3c3.67,0,4.893,3.67,5.1,4.077a1.835,1.835,0,0,0,3.16.51c.815-1.223,3.466-4.383,6.218-4.689s2.854.51,4.281,1.937c3.67,3.873-2.65,11.417-7.339,16.921a40.12,40.12,0,0,0-3.67,4.689A156.568,156.568,0,0,1,75.087,66.1c-1.835-2.039-2.344-4.179-1.631-6.218A7.543,7.543,0,0,1,79.47,55.4h.815" transform="translate(0.955 0.869)" fill="#f7e6dc"></path><path id="Trac&#xE9;_636" data-name="Trac&#xE9; 636" d="M160.925,125.082V94.706a.306.306,0,0,0-.306-.306h-.714a.306.306,0,0,0-.306.306v30.376a.306.306,0,0,0,.306.306h.714a.306.306,0,0,0,.306-.306" transform="translate(3.085 1.825)" fill="#f7e6dc"></path><path id="Trac&#xE9;_637" data-name="Trac&#xE9; 637" d="M17.923,125.082V94.706a.306.306,0,0,0-.306-.306h-.612a.306.306,0,0,0-.306.306v30.376a.306.306,0,0,0,.306.306h.714a.306.306,0,0,0,.306-.306" transform="translate(0.323 1.825)" fill="#f7e6dc"></path></g></g></g></g></g></svg>